<svg xmlns="http://www.w3.org/2000/svg" width="256" height="256" viewBox="0 0 100 100"><rect width="100" height="100" rx="20" fill="#7d6ee7"></rect><path fill="#fff" d="M19.35 57.23L19.35 57.23Q19.00 57.48 18.43 57.67Q17.85 57.88 17.15 57.88L17.15 57.88Q16.35 57.88 15.73 57.63Q15.10 57.38 14.85 56.83L14.85 56.83Q12.15 51.23 10.20 46.58Q8.25 41.92 7.05 38.88L7.05 38.88L6.85 38.88Q6.70 42.63 6.53 45.85Q6.35 49.08 6.15 52.15Q5.95 55.23 5.75 58.38Q5.55 61.52 5.35 65.13L5.35 65.13Q5.05 65.22 4.58 65.33Q4.10 65.42 3.55 65.42L3.55 65.42Q2.45 65.42 2.00 64.97Q1.55 64.53 1.55 63.67L1.55 63.67Q1.55 63.17 1.63 61.52Q1.70 59.88 1.85 57.52Q2.00 55.17 2.18 52.33Q2.35 49.48 2.58 46.52Q2.80 43.58 3.03 40.72Q3.25 37.88 3.45 35.52L3.45 35.52Q3.85 35.17 4.60 34.88Q5.35 34.58 6.30 34.58L6.30 34.58Q8.60 34.58 9.50 36.42L9.50 36.42Q10.45 38.38 11.43 40.55Q12.40 42.72 13.38 44.97Q14.35 47.22 15.28 49.42Q16.20 51.63 17.05 53.63L17.05 53.63L17.25 53.63Q18.35 50.98 19.45 48.40Q20.55 45.83 21.60 43.42Q22.65 41.02 23.60 38.92Q24.55 36.83 25.30 35.08L25.30 35.08Q25.75 34.83 26.45 34.70Q27.15 34.58 27.75 34.58L27.75 34.58Q30.10 34.58 30.45 36.17L30.45 36.17Q30.65 37.08 30.90 39.15Q31.15 41.22 31.40 43.92Q31.65 46.63 31.88 49.73Q32.10 52.83 32.30 55.70Q32.50 58.58 32.65 61Q32.80 63.42 32.90 64.83L32.90 64.83Q32 65.42 30.80 65.42L30.80 65.42Q30.05 65.42 29.48 65.05Q28.90 64.67 28.80 63.67L28.80 63.67Q28.55 60.02 28.35 56.42Q28.15 52.83 27.98 49.58Q27.80 46.33 27.65 43.60Q27.50 40.88 27.40 38.97L27.40 38.97L27.20 38.97Q26.65 40.38 25.93 42.13Q25.20 43.88 24.23 46.08Q23.25 48.27 22.05 51.05Q20.85 53.83 19.35 57.23ZM43.25 65.13L43.25 65.13Q42.25 65.13 41.65 64.53Q41.05 63.92 41.05 62.92L41.05 62.92L41.05 36.92Q41.05 35.92 41.65 35.33Q42.25 34.72 43.25 34.72L43.25 34.72L59.85 34.72Q60 34.97 60.15 35.40Q60.30 35.83 60.30 36.33L60.30 36.33Q60.30 37.17 59.90 37.67Q59.50 38.17 58.75 38.17L58.75 38.17L45.10 38.17L45.10 47.83L58.30 47.83Q58.45 48.08 58.60 48.50Q58.75 48.92 58.75 49.42L58.75 49.42Q58.75 50.27 58.35 50.75Q57.95 51.23 57.20 51.23L57.20 51.23L45.10 51.23L45.10 61.73L60.10 61.73Q60.25 61.98 60.40 62.38Q60.55 62.77 60.55 63.33L60.55 63.33Q60.55 64.17 60.15 64.65Q59.75 65.13 59 65.13L59 65.13L43.25 65.13ZM84.90 57.23L84.90 57.23Q84.55 57.48 83.98 57.67Q83.40 57.88 82.70 57.88L82.70 57.88Q81.90 57.88 81.28 57.63Q80.65 57.38 80.40 56.83L80.40 56.83Q77.70 51.23 75.75 46.58Q73.80 41.92 72.60 38.88L72.60 38.88L72.40 38.88Q72.25 42.63 72.08 45.85Q71.90 49.08 71.70 52.15Q71.50 55.23 71.30 58.38Q71.10 61.52 70.90 65.13L70.90 65.13Q70.60 65.22 70.13 65.33Q69.65 65.42 69.10 65.42L69.10 65.42Q68 65.42 67.55 64.97Q67.10 64.53 67.10 63.67L67.10 63.67Q67.10 63.17 67.18 61.52Q67.25 59.88 67.40 57.52Q67.55 55.17 67.73 52.33Q67.90 49.48 68.13 46.52Q68.35 43.58 68.58 40.72Q68.80 37.88 69 35.52L69 35.52Q69.40 35.17 70.15 34.88Q70.90 34.58 71.85 34.58L71.85 34.58Q74.15 34.58 75.05 36.42L75.05 36.42Q76 38.38 76.98 40.55Q77.95 42.72 78.93 44.97Q79.90 47.22 80.83 49.42Q81.75 51.63 82.60 53.63L82.60 53.63L82.80 53.63Q83.90 50.98 85 48.40Q86.10 45.83 87.15 43.42Q88.20 41.02 89.15 38.92Q90.10 36.83 90.85 35.08L90.85 35.08Q91.30 34.83 92 34.70Q92.70 34.58 93.30 34.58L93.30 34.58Q95.65 34.58 96 36.17L96 36.17Q96.20 37.08 96.45 39.15Q96.70 41.22 96.95 43.92Q97.20 46.63 97.43 49.73Q97.65 52.83 97.85 55.70Q98.05 58.58 98.20 61Q98.35 63.42 98.45 64.83L98.45 64.83Q97.55 65.42 96.35 65.42L96.35 65.42Q95.60 65.42 95.03 65.05Q94.45 64.67 94.35 63.67L94.35 63.67Q94.10 60.02 93.90 56.42Q93.70 52.83 93.53 49.58Q93.35 46.33 93.20 43.60Q93.05 40.88 92.95 38.97L92.95 38.97L92.75 38.97Q92.20 40.38 91.48 42.13Q90.75 43.88 89.78 46.08Q88.80 48.27 87.60 51.05Q86.40 53.83 84.90 57.23Z"></path></svg>